<?xml version="1.0" encoding="utf-8"?>
<!-- Generator: Adobe Illustrator 18.0.0, SVG Export Plug-In . SVG Version: 6.00 Build 0)  -->
<!DOCTYPE svg PUBLIC "-//W3C//DTD SVG 1.1//EN" "http://www.w3.org/Graphics/SVG/1.1/DTD/svg11.dtd">
<svg version="1.1" id="Layer_1" xmlns="http://www.w3.org/2000/svg" xmlns:xlink="http://www.w3.org/1999/xlink" x="0px" y="0px"
	 viewBox="0 0 125 125" enable-background="new 0 0 125 125" xml:space="preserve">
<path fill="none" stroke="#999999" stroke-width="6" stroke-miterlimit="10" d="M92.3,66.9c13.8,0,25.1,11.2,25.1,25.1
	S106.2,117,92.3,117s-25.1-11.2-25.1-25.1C67.2,78.1,78.5,66.9,92.3,66.9L92.3,66.9z"/>
<path fill="none" stroke="#999999" stroke-width="6" stroke-miterlimit="10" d="M50.3,49.9c11.5,0,21.1-9.4,21.1-21.1
	c0-11.5-9.4-21.1-21.1-21.1s-21.1,9.4-21.1,21.1C29.3,40.4,38.7,49.9,50.3,49.9z"/>
<path fill="none" stroke="#999999" stroke-width="6" stroke-miterlimit="10" d="M82.9,68.5c-9.4-5.5-23.6-8.1-32.5-8.1
	c-14.1,0-41.8,6.9-41.8,21.2v10.1h58.5C67.2,81.5,73.7,72.2,82.9,68.5z"/>
<polygon fill="#999999" points="86.7,98.7 79.4,91.4 76.9,93.8 86.7,103.6 107.7,82.6 105.3,80.2 "/>
</svg>
