<?xml version="1.0" encoding="utf-8"?>
<!-- Generator: Adobe Illustrator 18.0.0, SVG Export Plug-In . SVG Version: 6.00 Build 0)  -->
<!DOCTYPE svg PUBLIC "-//W3C//DTD SVG 1.1//EN" "http://www.w3.org/Graphics/SVG/1.1/DTD/svg11.dtd">
<svg version="1.1" id="Layer_1" xmlns="http://www.w3.org/2000/svg" xmlns:xlink="http://www.w3.org/1999/xlink" x="0px" y="0px"
	 viewBox="0 0 125 125" enable-background="new 0 0 125 125" xml:space="preserve">
<g>
	<g>
		<polygon fill="none" stroke="#999999" stroke-width="5" stroke-miterlimit="10" points="96.9,17.7 28.1,17.7 28.1,118.4 
			96.9,118.4 		"/>
	</g>
	<g>
		<polygon fill="#FFFFFF" points="80.4,9.4 44.6,9.4 44.6,26.1 80.4,26.1 		"/>
		<path fill="#999999" d="M80.4,28.9H44.6c-1.5,0-2.8-1.2-2.8-2.8V9.4c0-1.5,1.2-2.8,2.8-2.8h35.8c1.5,0,2.8,1.2,2.8,2.8v16.6
			C83.2,27.7,81.9,28.9,80.4,28.9z M47.3,23.4h30.3V12.2H47.3V23.4z"/>
	</g>
	<path fill="#999999" d="M56.6,51.2l-2,2l6.4,6.4l14.1-14.1l-2-2L61,55.5L56.6,51.2L56.6,51.2z M73.8,53.8c0,6.2-5.1,11.3-11.3,11.3
		c-6.2,0.1-11.3-5-11.3-11.3c0-6.2,5.1-11.3,11.3-11.3c1.1,0,2.1,0.1,3.1,0.4l2.3-2.3c-1.7-0.6-3.5-1-5.4-1
		c-7.8,0-14.1,6.4-14.1,14.1c0,7.8,6.4,14.1,14.1,14.1c7.8,0,14.1-6.4,14.1-14.1h-2.8V53.8z"/>
	<path fill="#999999" d="M56.6,88.6l-2,2L61,97l14.1-14.1l-2-2L61,93L56.6,88.6L56.6,88.6z M73.8,91.3c0,6.2-5.1,11.3-11.3,11.3
		s-11.3-5.1-11.3-11.3c0-6.2,5.1-11.3,11.3-11.3c1.1,0,2.1,0.1,3.1,0.4l2.3-2.3c-1.7-0.6-3.5-1-5.4-1c-7.8,0-14.1,6.4-14.1,14.1
		c0,7.8,6.4,14.1,14.1,14.1c7.8,0,14.1-6.4,14.1-14.1h-2.8V91.3z"/>
</g>
</svg>
