<?xml version="1.0" encoding="utf-8"?>
<!-- Generator: Adobe Illustrator 18.0.0, SVG Export Plug-In . SVG Version: 6.00 Build 0)  -->
<!DOCTYPE svg PUBLIC "-//W3C//DTD SVG 1.1//EN" "http://www.w3.org/Graphics/SVG/1.1/DTD/svg11.dtd">
<svg version="1.1" id="Layer_1" xmlns="http://www.w3.org/2000/svg" xmlns:xlink="http://www.w3.org/1999/xlink" x="0px" y="0px"
	 viewBox="0 0 125 125" enable-background="new 0 0 125 125" xml:space="preserve">
<g>
	<g>
		<path fill="#FFFFFF" stroke="#999999" stroke-width="1.5" stroke-linejoin="round" stroke-miterlimit="10" d="M114.6,84H13.1
			c-0.9,0-1.7-0.8-1.7-1.7V40.2c0-0.9,0.8-1.7,1.7-1.7h101.5c0.9,0,1.7,0.8,1.7,1.7v42.1C116.3,83.3,115.5,84,114.6,84z"/>
		<path fill="#FFFFFF" stroke="#999999" stroke-width="2" stroke-linejoin="round" stroke-miterlimit="10" d="M107.7,42H11.4
			C10.3,42,9,41.3,9,42.4v41.5c0,1.1,1.3,3.1,2.4,3.1h101.1c1.1,0,1.5-1.9,1.5-3.1V47.1L107.7,42z"/>
		<path fill="none" stroke="#999999" stroke-width="2" stroke-miterlimit="10" d="M105,42v6.1c0,0.6,2.1,2.9,2.7,2.9h6.3"/>
		
			<circle fill="#FFFFFF" stroke="#999999" stroke-width="2" stroke-linejoin="round" stroke-miterlimit="10" cx="61.8" cy="63.1" r="15.5"/>
		<g>
			<path fill="#999999" d="M65.5,58.4h-2.7c0.7,0.6,1.1,1.4,1.2,2.4h1.7l-0.3,0.9h-1.4c-0.1,1-0.5,1.8-1.2,2.4
				c-0.7,0.6-1.7,0.9-2.8,0.9l4.3,5.2v0.1h-1.3l-4.6-5.4l0-0.8H60c0.8,0,1.5-0.2,2-0.6c0.5-0.4,0.8-1,1-1.7h-5.1l0.3-0.9H63
				c-0.1-0.7-0.4-1.3-0.9-1.7c-0.5-0.4-1.2-0.7-2.2-0.7H58l0.3-0.9h7.5L65.5,58.4z"/>
		</g>
	</g>
	<g>
		<path fill="#999999" d="M62.1,43.4h-1.2v-7.1c0-7.6,6.2-13.8,13.8-13.8s13.8,6.2,13.8,13.8v1.5h-1.2v-1.5c0-7-5.7-12.6-12.6-12.6
			s-12.6,5.7-12.6,12.6V43.4z"/>
	</g>
	<g>
		<g>
			<path fill="#999999" d="M74.8,102.5c-7.6,0-13.8-6.2-13.8-13.8V72.6h1.2v16.1c0,7,5.7,12.6,12.6,12.6s12.6-5.7,12.6-12.6v-2.2
				h1.2v2.2C88.6,96.3,82.4,102.5,74.8,102.5z"/>
		</g>
		<g>
			<g>
				<path fill="#999999" d="M58.6,76c0.3,0.2,0.7,0.1,0.8-0.2l2.1-2.9l1.9,2.9c0.2,0.3,0.6,0.4,0.8,0.2c0.3-0.2,0.4-0.6,0.2-0.8
					L62,71.4c-0.1-0.2-0.3-0.3-0.5-0.3c-0.2,0-0.4,0.1-0.5,0.3l-2.6,3.8c-0.1,0.1-0.1,0.2-0.1,0.3C58.3,75.7,58.4,75.9,58.6,76z"/>
			</g>
		</g>
	</g>
	<circle fill="#999999" cx="61.5" cy="44" r="1.9"/>
</g>
</svg>
