<?xml version="1.0" encoding="utf-8"?>
<!-- Generator: Adobe Illustrator 18.0.0, SVG Export Plug-In . SVG Version: 6.00 Build 0)  -->
<!DOCTYPE svg PUBLIC "-//W3C//DTD SVG 1.1//EN" "http://www.w3.org/Graphics/SVG/1.1/DTD/svg11.dtd">
<svg version="1.1" id="Layer_1" xmlns="http://www.w3.org/2000/svg" xmlns:xlink="http://www.w3.org/1999/xlink" x="0px" y="0px"
	 viewBox="0 0 1736 886" enable-background="new 0 0 1736 886" xml:space="preserve">
<g>
	<path fill="none" stroke="#999999" stroke-width="15" stroke-miterlimit="10" d="M553.2,599.7c-2.1-11.8-9.1-22.3-19.5-29.3
		c-7.7-4.9-16-7.7-25.1-7.7c-15.3,0-30,7.7-38.3,20.2l-20.9,31.3c-13.9,20.9-8.4,49.5,13.2,63.4c7.7,4.9,16,7.7,25.1,7.7
		c15.3,0,30-7.7,38.3-20.2l20.9-31.3C553.2,624.1,556,611.6,553.2,599.7z"/>
	<path fill="none" stroke="#999999" stroke-width="15" stroke-miterlimit="10" d="M657,639.4c-2.8-11.8-9.1-22.3-19.5-28.6
		c-7.7-4.9-16-7.7-25.1-7.7c-15.3,0-30,7.7-38.3,20.2l-37.6,58.5c-7,10.4-9.1,22.3-7,34.1c2.8,11.8,9.1,22.3,19.5,29.3
		c7.7,4.9,16,7.7,25.1,7.7c15.3,0,30-7.7,38.3-20.2l37.6-58.5C657.7,663.8,659.8,651.3,657,639.4z"/>
	<path fill="none" stroke="#999999" stroke-width="15" stroke-miterlimit="10" d="M753.1,693.1c-2.8-11.8-9.1-22.3-19.5-29.3
		c-7.7-4.9-16-7.7-25.1-7.7c-15.3,0-30,7.7-38.3,20.2l-37.6,58.5c-13.9,20.9-8.4,49.5,13.2,63.4c7.7,4.9,16,7.7,25.1,7.7
		c15.3,0,30-7.7,38.3-20.2l37.6-58.5C753.1,717.4,755.9,705.6,753.1,693.1z"/>
	<path fill="none" stroke="#999999" stroke-width="15" stroke-miterlimit="10" d="M838.8,762.7c-2.1-11.8-9.1-22.3-19.5-29.3
		c-7.7-4.9-16-7.7-25.1-7.7c-15.3,0-30,7.7-38.3,20.2l-21.6,33.4c-13.9,20.9-8.4,49.5,13.2,63.4c7.7,4.9,16,7.7,25.1,7.7
		c15.3,0,30-7.7,38.3-20.2l21.6-33.4C838.8,787.1,840.9,775.3,838.8,762.7z"/>
	<path fill="none" stroke="#999999" stroke-width="15" stroke-miterlimit="10" d="M1226.8,569.1l-404-275.8l-68.3,15.3l-45.3,69.7
		c-10.4,16-27.9,25.1-46.7,25.1c-11.1,0-21.6-3.5-30.6-9.1c-12.5-8.4-20.9-20.9-23.7-35.5c-2.8-14.6,0-29.3,8.4-41.8l51.5-80.8
		c14.6-26.5,32.7-48.1,53.6-65.5l-141.4,16L287.8,25.1v436l179,104.5c11.1-10.4,25.8-16.7,41.1-16.7c11.8,0,23,3.5,33.4,9.8
		c13.2,9.1,22.3,22.3,25.8,38.3c0.7,3.5,1.4,7,1.4,10.4c11.1-11.8,27.2-18.8,43.9-18.8c11.8,0,23,3.5,33.4,9.8
		c13.2,9.1,22.3,22.3,25.8,38.3c1.4,5.6,1.4,11.8,0.7,17.4c10.4-7.7,23-11.8,36.2-11.8c11.8,0,23,3.5,33.4,9.8
		c13.2,9.1,22.3,22.3,25.8,38.3c2.1,9.1,1.4,18.8-0.7,27.9c18.8-9.8,42.5-8.4,60.6,3.5c13.2,9.1,22.3,22.3,25.8,38.3
		c3.5,16,0,32-8.4,45.3v0.7l2.1,1.4l64.8,44.6c8.4,6.3,17.4,9.1,27.9,9.1c14.6,0,27.9-6.3,36.2-18.1c15.3-20.2,11.1-48.8-9.1-64.1
		l-73.8-50.8l7.7-12.5l104.5,71.7c8.4,6.3,17.4,9.1,27.9,9.1c14.6,0,27.9-6.3,36.2-18.1c15.3-20.2,11.1-48.8-9.1-64.1l-112.8-76.6
		l8.4-13.9l128.9,88.5c8.4,6.3,17.4,9.1,27.9,9.1c14.6,0,27.9-6.3,36.2-18.1c15.3-20.2,11.1-48.8-9.1-64.1l-135.8-93.3l8.4-13.9
		l158.1,109.4c8.4,6.3,17.4,9.1,27.9,9.1l0,0c14.6,0,27.9-6.3,36.2-18.1C1249.1,612.3,1245.6,584.4,1226.8,569.1z"/>
	<path fill="none" stroke="#999999" stroke-width="15" stroke-miterlimit="10" d="M621.5,355.9c2.1,11.1,8.4,20.2,17.4,26.5
		c7,4.2,14.6,7,23,7c13.9,0,27.2-7,34.8-18.8l48.8-74.5l80.1-18.1l2.8,2.1l406.8,277.2l156-101V97.5l-234.7,78.7h-2.1l-274.4-32
		c-2.1-0.7-14.6-3.5-34.1-3.5c-40.4,0-115.6,13.2-165.8,103.1l-51.5,81.5C621.5,334.3,619.4,345.5,621.5,355.9z"/>
</g>
</svg>
