<?xml version="1.0" encoding="utf-8"?>
<!-- Generator: Adobe Illustrator 18.0.0, SVG Export Plug-In . SVG Version: 6.00 Build 0)  -->
<!DOCTYPE svg PUBLIC "-//W3C//DTD SVG 1.1//EN" "http://www.w3.org/Graphics/SVG/1.1/DTD/svg11.dtd">
<svg version="1.1" id="Layer_1" xmlns="http://www.w3.org/2000/svg" xmlns:xlink="http://www.w3.org/1999/xlink" x="0px" y="0px"
	 viewBox="0 0 1736 886" enable-background="new 0 0 1736 886" xml:space="preserve">
<g>
	<path fill="#999999" d="M1069.4,762.4c-11.4,0-19.9-9.2-19.9-19.9c0-100.9,0-553.5,0-640.2c0-7.8-6.4-14.9-14.9-14.9
		c-57.6,0-270,0-330.4,0c-4.3,0-8.5,1.4-11.4,5c-2.8,2.8-5,7.1-5,11.4c0,92.4,0,551.4,0,644.4c0,9.2-7.1,16.3-16.3,16.3
		c-27.7,0-82.4,0-110.1,0c-4.3,0-9.2,2.1-12.1,5c-3.6,3.6-5,7.8-5,12.1l0,0c0,9.2,7.8,17.1,17.1,17.1c45.5,0,167.7,0,167.7,0V127.9
		h233.8l-156.3,43.3v569.8l202.5,57.6c0,0,119.4,0,165.5,0c9.9,0,18.5-8.5,18.5-18.5l0,0c0-5-2.1-9.2-5.7-12.8
		c-3.6-3.6-7.8-5.7-12.8-5.7C1146.9,762.4,1097.1,762.4,1069.4,762.4L1069.4,762.4z M820,730.4V181.9l188.3-46.9v645.8L820,730.4
		L820,730.4z"/>
	<circle fill="#999999" cx="846.3" cy="442.6" r="14.9"/>
</g>
</svg>
