<?xml version="1.0" encoding="utf-8"?>
<!-- Generator: Adobe Illustrator 18.0.0, SVG Export Plug-In . SVG Version: 6.00 Build 0)  -->
<!DOCTYPE svg PUBLIC "-//W3C//DTD SVG 1.1//EN" "http://www.w3.org/Graphics/SVG/1.1/DTD/svg11.dtd">
<svg version="1.1" id="Layer_1" xmlns="http://www.w3.org/2000/svg" xmlns:xlink="http://www.w3.org/1999/xlink" x="0px" y="0px"
	 viewBox="0 0 1736 886" enable-background="new 0 0 1736 886" xml:space="preserve">
<path fill="none" stroke="#999999" stroke-width="23" stroke-miterlimit="10" d="M594.1,692h99.5V392.9h-99.5V692L594.1,692z
	 M1141.9,417.8c0-27.7-22.7-49.7-49.7-49.7h-157L960,253.7v-7.8c0-9.9-5-19.9-9.9-27.7L922.4,194L758.2,358.1
	c-9.9,7.8-14.9,19.9-14.9,34.8v248.7c0,27.7,22.7,49.7,49.7,49.7h223.8c19.9,0,37.7-12.8,44.8-29.8l74.6-176.9
	c2.8-5,2.8-12.8,2.8-17.8v-49.7h2.8C1141.9,420.6,1141.9,417.8,1141.9,417.8L1141.9,417.8z"/>
</svg>
