<?xml version="1.0" encoding="utf-8"?>
<!-- Generator: Adobe Illustrator 18.0.0, SVG Export Plug-In . SVG Version: 6.00 Build 0)  -->
<!DOCTYPE svg PUBLIC "-//W3C//DTD SVG 1.1//EN" "http://www.w3.org/Graphics/SVG/1.1/DTD/svg11.dtd">
<svg version="1.1" id="Layer_1" xmlns="http://www.w3.org/2000/svg" xmlns:xlink="http://www.w3.org/1999/xlink" x="0px" y="0px"
	 viewBox="0 0 1736 886" enable-background="new 0 0 1736 886" xml:space="preserve">
<g>
	<g>
		<g>
			<polyline fill="none" stroke="#999999" stroke-width="15" stroke-linecap="round" stroke-miterlimit="10" points="454.8,75.2 
				454.8,727.9 1305.9,727.9 			"/>
			<g>
				<polygon fill="#999999" points="344,167.9 364.2,186.7 456.9,86.4 550.9,186.7 571.1,167.9 456.9,46 				"/>
			</g>
			<g>
				<polygon fill="#999999" points="1213.3,840.7 1194.5,820.5 1294.8,726.5 1194.5,633.9 1213.3,613.7 1335.2,726.5 				"/>
			</g>
		</g>
	</g>
	<g>
		<g>
			<polyline fill="none" stroke="#999999" stroke-width="15" stroke-linecap="round" stroke-miterlimit="10" points="464.5,720.2 
				711.8,476.4 817,562.8 1326.8,44.6 			"/>
			<g>
				<path fill="#999999" d="M1289.2,273.7c-7-2.1-12.5-9.1-10.4-16.7l43.9-208.3l-206.9,48.1c-7,2.1-14.6-2.8-16.7-10.4
					s2.8-14.6,10.4-16.7L1338,17.4c4.2-0.7,9.1,0,12.5,2.8c3.5,2.8,4.9,8.4,4.2,12.5l-48.8,229.9c-0.7,2.8-2.1,4.9-4.2,7
					C1299,272.3,1293.4,274.4,1289.2,273.7z"/>
			</g>
		</g>
	</g>
	<circle fill="#999999" cx="607.3" cy="301.6" r="9.1"/>
	<circle fill="#999999" cx="979.3" cy="225.7" r="9.1"/>
	<circle fill="#999999" cx="1109.5" cy="405.4" r="9.1"/>
	<circle fill="#999999" cx="1278.1" cy="363.6" r="9.1"/>
	<g>
		
			<line fill="none" stroke="#999999" stroke-width="15" stroke-linecap="round" stroke-miterlimit="10" x1="470.8" y1="811.5" x2="617.1" y2="811.5"/>
		
			<line fill="none" stroke="#999999" stroke-width="15" stroke-linecap="round" stroke-miterlimit="10" x1="470.8" y1="853.3" x2="575.3" y2="853.3"/>
		<circle fill="#999999" cx="639.5" cy="811.5" r="7"/>
		<circle fill="#999999" cx="597" cy="853.3" r="7"/>
	</g>
</g>
</svg>
